<svg xmlns="http://www.w3.org/2000/svg" xmlns:xlink="http://www.w3.org/1999/xlink" xmlns:svgjs="http://svgjs.com/svgjs" version="1.1" width="512" height="512" x="0" y="0" viewBox="0 0 512 512" style="enable-background:new 0 0 512 512" xml:space="preserve" class=""><g><g xmlns="http://www.w3.org/2000/svg"><path d="m93.795 417.5c1.235-2.53 6.106-16.743 7.304-19-12.905-11.005-21.099-27.372-21.099-45.662 0-3.186 0-26.054 0-106.338 0-106.322 49.584-179.028 194.916-190.422-5.682-1.026-11.648-1.578-17.916-1.578-178 0-237 76-237 192v111c0 33.137 26.863 60 60 60z" fill="#ceebf2" data-original="#cee1f2" style="" class=""/><path d="m362 477.5c-26.075 0-48.318-16.719-56.573-40h-108.854c-8.254 23.281-30.498 40-56.573 40s-48.318-16.719-56.573-40h-3.427c-44.09 0-79.965-35.854-80-79.938 0-.011 0-.021 0-.031v-111.031c0-32.212 4.424-61.02 13.15-85.623 9.637-27.173 24.837-50.287 45.176-68.703 42.864-38.809 107.85-57.674 198.674-57.674 48.035 0 88.069 27.032 115.773 78.174 13.982 25.812 21.896 52.439 25.98 69.562 27.07 5.531 50.803 14.015 72.22 25.787 25.307 13.911 41.027 40.682 41.027 69.866v79.611c0 44.112-35.888 80-80 80h-13.427c-8.255 23.281-30.498 40-56.573 40zm-182-80h142c11.046 0 20 8.954 20 20 0 11.028 8.972 20 20 20s20-8.972 20-20c0-11.046 8.954-20 20-20h30c22.056 0 40-17.944 40-40v-79.611c0-14.592-7.776-27.932-20.295-34.813-20.848-11.459-44.696-19.256-72.908-23.833-4.586-.744-8.77-3.062-11.833-6.555-3.613-4.12-4.402-8.293-4.78-10.298-4.036-21.357-28.069-127.89-105.184-127.89-192.335 0-217 91.92-217 172v111c0 22.056 17.944 40 40 40h20c11.046 0 20 8.954 20 20 0 11.028 8.972 20 20 20s20-8.972 20-20c0-11.046 8.954-20 20-20zm105-136c-7.029 0-13.21 3.626-16.777 9.109-1.353 1.962-23.279 32.891-58.223 32.891-35.023 0-56.97-31.07-58.232-32.904-3.568-5.476-9.745-9.096-16.768-9.096-11.046 0-20 8.954-20 20 0 4.181 1.283 8.062 3.477 11.272 3.375 5.028 35.599 50.728 91.523 50.728 55.583 0 87.754-45.144 91.457-50.632 2.234-3.228 3.543-7.145 3.543-11.368 0-11.046-8.954-20-20-20z" fill="#59c0d7" data-original="#1428bf" style="" class=""/><path d="m177 197.5c0 13.807-11.193 25-25 25s-25-11.193-25-25 11.193-25 25-25 25 11.193 25 25zm91-25c-13.807 0-25 11.193-25 25s11.193 25 25 25 25-11.193 25-25-11.193-25-25-25z" fill="#59c0d7" data-original="#df5cf0" style="" class=""/></g></g></svg>